<svg width="67" height="71" viewBox="0 0 67 71" fill="none" xmlns="http://www.w3.org/2000/svg">
<path d="M66.4628 36.1088C66.4628 28.6924 60.4518 22.6814 53.0353 22.6814C51.1216 22.6814 47.6558 23.8113 47.6558 23.8113L21.9972 26.5167C21.9972 26.5167 16.6861 23.4262 13.4294 23.4262C6.01097 23.4262 0 29.4372 0 36.8536C0 37.3169 0.0234574 37.7743 0.0684175 38.2259C0.793644 55.9382 15.3431 70.085 33.2314 70.085C51.5849 70.085 66.4628 55.2071 66.4628 36.8536C66.4628 36.752 66.4452 36.6562 66.4393 36.5545C66.4452 36.406 66.4628 36.2594 66.4628 36.1088Z" fill="#FFCB4C"/>
<path d="M33.2314 65.3701C37.9082 65.3701 41.6995 61.0379 41.6995 55.6939C41.6995 50.3498 37.9082 46.0177 33.2314 46.0177C28.5546 46.0177 24.7632 50.3498 24.7632 55.6939C24.7632 61.0379 28.5546 65.3701 33.2314 65.3701Z" fill="#65471B"/>
<path d="M25.4122 39.993C25.4122 42.8724 23.6608 45.2064 21.5027 45.2064C19.3426 45.2064 17.5931 42.8724 17.5931 39.993C17.5931 37.1136 19.3426 34.7796 21.5027 34.7796C23.6608 34.7796 25.4122 37.1136 25.4122 39.993ZM48.8697 39.991C48.8697 42.8705 47.1202 45.2045 44.9601 45.2045C42.8001 45.2045 41.0505 42.8705 41.0505 39.991C41.0505 37.1136 42.802 34.7776 44.9601 34.7776C47.1202 34.7796 48.8697 37.1136 48.8697 39.991V39.991Z" fill="#65471B"/>
<path d="M10.2939 26.4698C10.7826 26.1023 12.4696 25.4689 13.6483 26.5695C15.6383 28.4246 16.1211 23.7448 22.3999 27.1618C25.2715 28.7236 39.9715 29.0384 41.3594 28.3483C46.6217 25.7348 50.6798 24.0517 52.2515 24.9411C53.4713 25.6312 50.3495 26.808 52.6327 27.0758C54.9647 27.3494 55.0976 26.1179 56.9371 26.5949C60.1723 27.4335 54.7986 31.1378 54.7986 31.1378C46.2816 38.1262 16.819 32.903 11.6193 29.6209C9.47094 28.2643 9.53936 27.0347 10.2939 26.4698V26.4698Z" fill="#F19020"/>
<path d="M56.0789 17.5305L33.2314 14.9834L9.65274 17.5305C16.7994 24.6987 19.1217 33.0066 19.1217 33.0066L27.7951 34.7503L46.3676 34.7776C46.3656 34.7776 49.3584 23.475 56.0789 17.5305V17.5305Z" fill="#D93047"/>
<path d="M55.3322 18.1561C57.8363 15.6872 45.9981 14.5964 36.5917 14.5964C27.1852 14.5964 20.2516 16.6528 20.2516 16.6528C20.2516 16.6528 10.2978 18.1854 11.6603 19.6964C13.5916 21.835 15.9608 25.8599 15.9608 25.8599C15.9608 25.8599 25.2598 30.5611 32.2853 24.6362C37.1722 27.5684 44.014 26.5304 47.0674 21.4909C47.0674 21.4909 49.4464 22.3765 51.8586 22.5289C51.8586 22.5289 53.7215 19.7434 55.3322 18.1561V18.1561Z" fill="#C02334"/>
<path d="M55.9245 30.2972C52.5056 32.7642 51.8371 29.8027 48.7211 29.8027C46.5415 29.8027 46.3148 30.9873 43.2692 32.3986C41.3985 33.2666 38.7224 30.9052 37.0608 30.9052C34.8128 30.9052 32.7271 33.941 29.791 32.3322C28.1489 31.433 26.8842 29.8711 24.6636 29.9297C20.8419 30.0314 20.9221 31.7946 17.5247 31.2277C8.76722 29.7636 9.01157 26.5871 9.01157 26.5871L7.72532 34.8617H26.0651L33.4777 38.3764L42.1921 34.8617H52.9298C52.9298 34.8617 54.1828 34.5137 55.0683 34.1931C58.1647 33.077 58.5342 28.4148 55.9245 30.2972V30.2972Z" fill="#FFCB4C"/>
<path d="M58.888 6.99423C58.4188 6.99423 57.9751 7.0822 57.547 7.2073C56.2021 5.55551 54.1789 4.47842 51.882 4.47842C51.712 4.47842 51.5517 4.51751 51.3835 4.52924C49.9487 2.91263 47.8767 1.87269 45.5446 1.87269C42.6026 1.87269 40.0712 3.51275 38.7302 5.91128C38.0539 4.35136 36.5037 3.25863 34.6955 3.25863C33.292 3.25863 32.0585 3.92717 31.2531 4.94952C30.2601 2.07598 27.5625 0 24.3527 0C21.7666 0 19.5049 1.34685 18.1991 3.3681C17.8394 3.31141 17.4797 3.25472 17.1044 3.25472C14.3051 3.25472 11.9027 4.84201 10.6673 7.14866C10.2705 7.07438 9.86582 7.02551 9.44749 7.02551C5.80377 7.02551 2.85008 9.97919 2.85008 13.6229C2.85008 17.2666 5.80377 20.2203 9.44749 20.2203C10.5969 20.2203 11.6662 19.9095 12.6025 19.3895C13.3375 19.9408 14.2406 20.2809 15.2317 20.2809C15.5152 20.2809 15.7888 20.2496 16.0566 20.1969C17.728 22.8925 20.6836 24.6987 24.0888 24.6987C27.4296 24.6987 30.3559 22.9688 32.0507 20.365C33.4581 22.0891 35.5732 23.2131 37.9717 23.2131C41.5197 23.2131 44.4753 20.7931 45.353 17.5227C45.4195 17.5247 45.4801 17.5423 45.5466 17.5423C46.0998 17.5423 46.6393 17.4817 47.1612 17.3722C48.4396 18.4591 50.0758 19.1393 51.8859 19.1393C54.1808 19.1393 56.206 18.0622 57.549 16.4104C57.977 16.5355 58.4208 16.6235 58.8899 16.6235C61.5484 16.6235 63.7046 14.4674 63.7046 11.8089C63.7046 9.15036 61.5465 6.99423 58.888 6.99423V6.99423Z" fill="#E8596E"/>
<path d="M52.3785 15.132C54.6684 15.132 56.5246 13.2757 56.5246 10.9859C56.5246 8.69608 54.6684 6.8398 52.3785 6.8398C50.0887 6.8398 48.2324 8.69608 48.2324 10.9859C48.2324 13.2757 50.0887 15.132 52.3785 15.132Z" fill="#F3AAB9"/>
<path d="M36.8986 11.2518C36.8986 8.9197 35.0083 7.02746 32.6762 7.02746C31.9569 7.02746 31.2883 7.22489 30.696 7.54157C30.2054 6.36674 29.0462 5.53987 27.6915 5.53987C26.5832 5.53987 25.6058 6.09698 25.0174 6.9434C23.7077 5.72557 21.966 4.96321 20.0366 4.96321C16.6059 4.96321 13.75 7.3285 12.9505 10.5109C12.237 9.79349 11.2498 9.34779 10.1571 9.34779C7.98531 9.34779 6.22404 11.1091 6.22404 13.2808C6.22404 15.4526 7.98531 17.2139 10.1571 17.2139C11.5313 17.2139 12.7354 16.5082 13.4392 15.4409C14.4498 17.554 16.428 19.1022 18.8129 19.5049C19.5752 20.8146 20.9768 21.704 22.6013 21.704C24.7007 21.704 26.4502 20.2301 26.8881 18.2636C27.5215 18.6154 28.2389 18.8344 29.013 18.8344C31.1046 18.8344 32.8483 17.3702 33.2939 15.4135C35.3308 15.1105 36.8986 13.3727 36.8986 11.2518V11.2518Z" fill="#F3AAB9"/>
</svg>
