<svg width="176" height="30" viewBox="0 0 176 30" fill="none" xmlns="http://www.w3.org/2000/svg">
<path fill-rule="evenodd" clip-rule="evenodd" d="M57.6 17.2392C57.6 19.7859 55.5145 21.6469 52.6345 21.6469C49.7545 21.6469 47.669 19.7859 47.669 17.2392V7.836H45.6828V17.3371C45.6828 20.6674 48.5628 23.508 52.6345 23.508C56.7062 23.508 59.5862 20.5695 59.5862 17.3371V7.836H57.6V17.2392ZM73.8869 7.836H68.5241V23.508H73.8869C78.3559 23.508 81.4345 20.4715 81.4345 15.672C81.4345 10.9704 78.3559 7.836 73.8869 7.836V7.836ZM73.6883 21.549H70.5103V9.795H73.6883C77.0648 9.795 79.4483 12.0478 79.4483 15.672C79.4483 19.59 76.9655 21.451 73.6883 21.549V21.549ZM117.186 21.8428C113.611 21.8428 111.228 19.1982 111.228 15.672C111.228 12.1458 113.71 9.5991 117.186 9.5991C119.967 9.5991 121.655 11.1663 121.655 11.1663L122.45 9.795C122.45 9.795 120.662 7.93395 116.988 7.93395C112.221 7.93395 109.241 11.4601 109.241 15.672C109.241 19.9818 112.32 23.6059 117.186 23.6059C120.96 23.6059 122.847 21.0592 122.847 21.0592L121.754 19.8838C121.655 19.7859 120.166 21.8428 117.186 21.8428V21.8428ZM132.083 7.836H134.069V23.508H132.083V7.836ZM143.007 9.795H147.972V23.508H149.959V9.795H154.924V7.836H143.007V9.795ZM173.594 7.836L168.828 14.9863L163.961 7.836H161.876L167.834 16.5535V23.508H169.821V16.5535L175.68 7.83601L173.594 7.836ZM94.2455 7.83601L88.0883 23.508H90.0745L91.7628 19.0023L98.2179 17.631L100.403 23.508H102.389L96.331 7.836H94.2455L94.2455 7.83601ZM92.3586 17.1412L95.3379 9.89295H95.4372L97.92 16.0638L92.3586 17.1412V17.1412Z" fill="#2E3D49"/>
<path fill-rule="evenodd" clip-rule="evenodd" d="M29 0.5L30 1V14C30 19.5519 27.1103 22.6957 24.0048 24.0999L24.0094 24.1L16.3884 28.4886C16.3297 28.5231 16.2707 28.5571 16.2115 28.5905L16.1251 28.6402L16.1269 28.6377C14.4829 29.5459 12.6847 30 11 30C6 30 0 26 0 18V6L2 7V18C2 26 8 28 11 28C12.8587 28 15.869 27.2323 17.8904 24.7455C14.1817 23.8726 10 20.6787 10 14V2.2L2 7L0 6L10 0L11 0.5L12 1V14C12 20.94 16.5153 22.6121 19.0175 22.9334C19.6258 21.6216 20 19.9979 20 18V5L22 6V18C22 19.8526 21.6782 21.4908 21.1216 22.9144C23.6482 22.5492 28 20.8131 28 14V2.25L22 6L20 5L28 0L29 0.5Z" fill="#02B3E4"/>
</svg>
