<svg width="141" height="103" fill="none" xmlns="http://www.w3.org/2000/svg"><path fill-rule="evenodd" clip-rule="evenodd" d="M2.011 26A11.322 11.322 0 012 25.5c0-5.21 3.573-9.44 8-9.5h23.094c4.47 0 8.095 4.253 8.095 9.5S37.565 35 33.094 35H10c-1.86-.026-3.568-.786-4.925-2.046C4.3 33.71 2.728 34.542 0 34.542c.652-.41 1.528-1.774 2-2.952V26h.011z" fill="#E5E5E9"/><path d="M12.235 21.827l1.353 5.835 1.621-5.835h1.055l1.62 5.835 1.353-5.835h1.065L18.417 29h-1.02l-1.656-5.947L14.076 29h-1.02l-1.875-7.173h1.054zm12.032 1.943h.971c-.123.336-.398 1.1-.825 2.295-.319.899-.586 1.631-.8 2.198-.508 1.334-.867 2.148-1.075 2.441-.208.293-.566.44-1.074.44-.124 0-.22-.005-.288-.015a2.338 2.338 0 01-.244-.054v-.8c.153.042.263.068.332.078.068.01.128.014.18.014.163 0 .282-.027.357-.083a.698.698 0 00.195-.195 25.01 25.01 0 00.396-.938l-1.934-5.38h.996l1.401 4.257 1.412-4.258zm2.29 2.676c0 .56.119 1.029.356 1.406.238.378.619.567 1.143.567.407 0 .74-.174 1-.523.264-.351.396-.854.396-1.508 0-.661-.135-1.15-.405-1.465-.27-.32-.604-.479-1.001-.479-.443 0-.802.17-1.08.508-.273.339-.41.837-.41 1.494zm1.323-2.768c.4 0 .736.084 1.006.254.156.097.333.268.532.512v-2.641h.845V29h-.791v-.727c-.205.322-.448.555-.728.698-.28.143-.6.215-.962.215-.582 0-1.087-.245-1.513-.733-.427-.491-.64-1.144-.64-1.958 0-.762.194-1.42.581-1.977.39-.56.947-.84 1.67-.84z" fill="#000"/><path fill-rule="evenodd" clip-rule="evenodd" d="M138.989 54c.007-.166.011-.332.011-.5 0-5.247-3.624-9.5-8.094-9.5H77.811c-4.427.06-8 4.29-8 9.5s3.573 9.44 8 9.5h53.095c1.896 0 3.639-.765 5.019-2.046.775.756 2.347 1.588 5.075 1.588-.652-.41-1.528-1.774-2-2.952V54h-.011z" fill="#1D8AF7"/><path d="M84.046 49.827l1.353 5.835 1.621-5.835h1.055l1.62 5.835 1.354-5.835h1.064L90.228 57h-1.02l-1.656-5.947L85.887 57h-1.02l-1.875-7.173h1.054zm10.752 6.607c.583 0 .982-.22 1.197-.66.218-.442.327-.934.327-1.474 0-.488-.078-.886-.234-1.192-.248-.481-.674-.722-1.28-.722-.537 0-.928.205-1.172.615-.244.41-.366.905-.366 1.484 0 .557.122 1.02.366 1.392.245.371.632.557 1.163.557zm.035-4.815c.674 0 1.243.225 1.709.674.465.45.698 1.11.698 1.982 0 .843-.205 1.54-.615 2.09-.41.55-1.047.825-1.91.825-.719 0-1.29-.242-1.713-.727-.424-.488-.635-1.143-.635-1.963 0-.879.223-1.579.669-2.1.446-.52 1.045-.78 1.797-.78zm3.481.151h.835v.904c.068-.176.236-.39.503-.64a1.3 1.3 0 011.006-.376l.2.02v.928a1.312 1.312 0 00-.288-.025c-.443 0-.783.143-1.02.43-.238.283-.357.61-.357.981V57h-.879v-5.23zm3.286-1.943h.845v4.165l2.256-2.221h1.123l-2.002 1.957L105.936 57h-1.123l-1.631-2.637-.737.674V57h-.845v-7.173zm5.02 1.968h.893V57h-.893v-5.205zm0-1.968h.893v.996h-.893v-.996zm2.226 1.944h.835v.742c.248-.306.51-.526.786-.66a2.1 2.1 0 01.923-.2c.742 0 1.244.26 1.504.777.143.283.215.688.215 1.215V57h-.894v-3.296c0-.319-.047-.576-.141-.771-.156-.326-.44-.489-.85-.489-.208 0-.379.021-.512.064a1.32 1.32 0 00-.635.43 1.305 1.305 0 00-.288.537c-.043.182-.064.444-.064.786V57h-.879v-5.23zm7.412-.093c.411 0 .769.1 1.075.303.166.113.335.28.507.497v-.659h.811v4.756c0 .664-.098 1.188-.293 1.572-.365.71-1.053 1.065-2.065 1.065-.564 0-1.037-.127-1.421-.38-.384-.252-.599-.645-.645-1.183h.894c.042.235.127.416.254.542.198.196.511.293.937.293.674 0 1.115-.237 1.323-.712.124-.28.181-.78.171-1.5a1.727 1.727 0 01-.634.596c-.248.13-.575.195-.982.195-.566 0-1.063-.2-1.489-.6-.423-.404-.635-1.07-.635-1.997 0-.876.213-1.56.64-2.051.429-.492.947-.737 1.552-.737zm1.582 2.685c0-.648-.133-1.128-.4-1.44a1.283 1.283 0 00-1.02-.469c-.619 0-1.042.29-1.27.87-.12.309-.181.714-.181 1.215 0 .59.119 1.038.357 1.348.241.306.563.459.967.459.631 0 1.075-.285 1.333-.855.143-.322.214-.698.214-1.128zm2.349 1.572h1.021V57h-1.021v-1.065zm2.783 0h1.021V57h-1.021v-1.065zm2.783 0h1.021V57h-1.021v-1.065z" fill="#fff"/><path fill-rule="evenodd" clip-rule="evenodd" d="M138.989 74c.007-.166.011-.332.011-.5 0-5.247-3.624-9.5-8.094-9.5H77.811c-4.427.06-8 4.29-8 9.5s3.573 9.44 8 9.5h53.095c1.896 0 3.639-.765 5.019-2.046.775.756 2.347 1.588 5.075 1.588-.652-.41-1.528-1.774-2-2.952V74h-.011z" fill="#1D8AF7"/><path d="M83.208 74.686c.022.406.118.737.288.99.322.476.89.714 1.704.714.364 0 .696-.052.996-.157.58-.201.87-.563.87-1.084 0-.39-.123-.668-.367-.835-.248-.162-.635-.304-1.162-.424l-.972-.22c-.635-.143-1.084-.301-1.348-.474-.455-.3-.683-.747-.683-1.343 0-.644.223-1.173.669-1.586.446-.414 1.077-.62 1.894-.62.752 0 1.39.182 1.914.546.528.362.791.941.791 1.739h-.913c-.048-.385-.153-.68-.312-.884-.296-.374-.8-.562-1.509-.562-.573 0-.985.12-1.235.362-.251.24-.376.52-.376.84 0 .351.146.608.44.771.191.104.626.234 1.303.39l1.006.23c.485.11.86.262 1.123.454.456.335.683.822.683 1.46 0 .794-.29 1.363-.869 1.704-.576.342-1.247.513-2.011.513-.892 0-1.59-.228-2.095-.684-.505-.452-.752-1.066-.742-1.84h.913zM89.3 70.31h.89v1.46h.834v.718h-.835v3.413c0 .183.062.305.186.367.068.035.182.053.341.053h.137c.049-.003.106-.008.171-.014V77c-.1.03-.207.05-.317.064-.108.013-.225.019-.352.019-.41 0-.688-.104-.835-.313-.146-.211-.22-.484-.22-.82v-3.462h-.708v-.718h.708v-1.46zm3.487 1.46v3.472c0 .267.042.485.127.654.156.313.447.47.874.47.612 0 1.028-.274 1.25-.821.12-.293.18-.695.18-1.206V71.77h.88V77h-.83l.009-.772a1.773 1.773 0 01-.425.503c-.335.274-.742.41-1.22.41-.746 0-1.254-.248-1.524-.747-.146-.266-.22-.623-.22-1.069V71.77h.899zm5.244 2.676c0 .56.119 1.029.356 1.407.238.377.619.566 1.143.566.407 0 .74-.174 1.001-.522.264-.352.395-.855.395-1.51 0-.66-.135-1.148-.405-1.464-.27-.32-.604-.479-1-.479-.444 0-.803.17-1.08.508-.273.339-.41.837-.41 1.494zm1.323-2.768c.4 0 .736.084 1.006.254.156.097.334.268.532.512v-2.641h.845V77h-.791v-.728c-.205.323-.448.555-.728.699-.28.143-.6.215-.962.215-.582 0-1.087-.245-1.513-.733-.427-.491-.64-1.144-.64-1.958 0-.762.194-1.42.581-1.977.39-.56.947-.84 1.67-.84zm6.953.093h.972c-.124.335-.399 1.1-.825 2.294-.319.899-.586 1.631-.801 2.198-.508 1.334-.866 2.148-1.074 2.441-.209.293-.567.44-1.075.44a2.17 2.17 0 01-.288-.015 2.358 2.358 0 01-.244-.054v-.8c.153.042.264.068.332.078.069.01.129.014.181.014.163 0 .282-.028.356-.083a.688.688 0 00.196-.195 6.24 6.24 0 00.176-.4c.1-.241.174-.42.219-.538l-1.933-5.38h.996l1.401 4.257 1.411-4.258zm1.734.024h.893V77h-.893v-5.205zm0-1.968h.893v.996h-.893v-.996zm2.226 1.944h.835v.742c.248-.306.51-.526.786-.66a2.1 2.1 0 01.923-.2c.742 0 1.244.26 1.504.777.143.283.215.688.215 1.215V77h-.894v-3.296c0-.319-.047-.576-.141-.771-.157-.326-.44-.489-.85-.489-.208 0-.379.022-.513.064-.24.071-.452.215-.634.43a1.305 1.305 0 00-.288.537c-.043.182-.064.444-.064.786V77h-.879v-5.23zm7.412-.093c.41 0 .769.1 1.075.303.166.113.335.28.507.498v-.66h.811v4.756c0 .664-.098 1.188-.293 1.572-.365.71-1.053 1.065-2.066 1.065-.563 0-1.036-.127-1.42-.38-.385-.252-.599-.645-.645-1.183h.894c.042.235.127.415.254.542.198.196.511.293.937.293.674 0 1.115-.237 1.323-.712.124-.28.181-.78.171-1.5a1.722 1.722 0 01-.635.596c-.247.13-.574.196-.981.196-.566 0-1.063-.2-1.489-.601-.423-.404-.635-1.07-.635-1.997 0-.876.213-1.56.64-2.051.429-.492.947-.737 1.552-.737zm1.582 2.685c0-.647-.133-1.128-.4-1.44a1.283 1.283 0 00-1.021-.469c-.618 0-1.041.29-1.269.87-.121.308-.181.714-.181 1.215 0 .59.119 1.038.357 1.348.241.306.563.459.966.459.632 0 1.076-.285 1.333-.855.144-.322.215-.698.215-1.128zm2.349 1.573h1.02V77h-1.02v-1.064zm2.783 0h1.021V77h-1.021v-1.064zm2.783 0h1.021V77h-1.021v-1.064z" fill="#fff"/><path fill-rule="evenodd" clip-rule="evenodd" d="M138.989 94c.007-.166.011-.332.011-.5 0-5.247-3.624-9.5-8.094-9.5H86.811c-4.427.06-8 4.29-8 9.5s3.573 9.44 8 9.499V103h44v-.001l.095.001c1.896 0 3.639-.765 5.019-2.046.775.756 2.347 1.588 5.075 1.588-.652-.41-1.528-1.774-2-2.952V94h-.011z" fill="#1D8AF7"/><path d="M93.595 89.632c.909 0 1.613.24 2.115.718.5.478.78 1.022.835 1.63h-.948c-.107-.462-.322-.828-.644-1.098-.32-.27-.769-.405-1.348-.405-.706 0-1.278.249-1.714.747-.433.494-.65 1.254-.65 2.28 0 .84.196 1.522.587 2.046.394.52.98.781 1.758.781.716 0 1.261-.275 1.635-.825.199-.29.347-.67.445-1.143h.947c-.085.755-.365 1.389-.84 1.9-.57.615-1.338.922-2.305.922-.833 0-1.533-.252-2.1-.756-.745-.668-1.117-1.698-1.117-3.091 0-1.058.28-1.926.84-2.603.605-.735 1.44-1.103 2.504-1.103zm6.162 6.802c.583 0 .982-.22 1.197-.66.218-.442.327-.934.327-1.474 0-.489-.078-.886-.234-1.192-.248-.481-.674-.722-1.28-.722-.537 0-.927.205-1.172.615-.244.41-.366.905-.366 1.484 0 .557.122 1.02.366 1.392.245.371.632.557 1.162.557zm.035-4.815c.673 0 1.243.225 1.709.674.465.45.698 1.11.698 1.982 0 .843-.205 1.54-.615 2.09-.411.55-1.047.825-1.91.825-.719 0-1.29-.242-1.713-.727-.424-.488-.635-1.143-.635-1.963 0-.879.223-1.579.669-2.1.446-.52 1.045-.78 1.797-.78zm4.013 2.827c0 .56.119 1.029.357 1.407.237.377.618.566 1.142.566.407 0 .741-.174 1.001-.522.264-.352.396-.855.396-1.51 0-.66-.135-1.148-.405-1.464-.271-.32-.604-.479-1.001-.479-.443 0-.803.17-1.08.508-.273.339-.41.837-.41 1.494zm1.324-2.768c.4 0 .735.084 1.005.254.157.097.334.268.533.512v-2.641h.844V97h-.791v-.728c-.205.323-.447.555-.727.699-.28.143-.601.215-.962.215-.583 0-1.087-.245-1.514-.733-.426-.491-.639-1.144-.639-1.958 0-.762.193-1.42.581-1.977.39-.56.947-.84 1.67-.84zm3.686.117h.894V97h-.894v-5.205zm0-1.968h.894v.996h-.894v-.996zm2.227 1.944h.835v.742c.247-.306.509-.526.786-.66.276-.133.584-.2.923-.2.742 0 1.243.26 1.503.777.144.283.215.688.215 1.215V97h-.893v-3.296c0-.319-.047-.576-.142-.771-.156-.326-.439-.489-.849-.489-.209 0-.38.022-.513.064a1.32 1.32 0 00-.635.43 1.328 1.328 0 00-.288.537 3.724 3.724 0 00-.063.786V97h-.879v-5.23zm7.412-.093c.41 0 .768.1 1.074.303.166.113.335.28.508.498v-.66h.81v4.756c0 .664-.097 1.188-.293 1.572-.364.71-1.053 1.065-2.065 1.065-.563 0-1.037-.127-1.421-.38-.384-.252-.599-.645-.645-1.183h.894c.042.235.127.415.254.542.199.196.511.293.937.293.674 0 1.115-.237 1.324-.712.123-.28.18-.78.171-1.5a1.73 1.73 0 01-.635.596c-.248.13-.575.196-.982.196-.566 0-1.062-.2-1.489-.601-.423-.404-.635-1.07-.635-1.997 0-.876.214-1.56.64-2.051.43-.492.947-.737 1.553-.737zm1.582 2.685c0-.647-.134-1.128-.401-1.44a1.283 1.283 0 00-1.02-.469c-.619 0-1.042.29-1.27.87-.12.308-.18.714-.18 1.215 0 .59.118 1.038.356 1.348.241.306.563.459.967.459.631 0 1.076-.285 1.333-.855a2.76 2.76 0 00.215-1.128zm2.348 1.573h1.021V97h-1.021v-1.064zm2.784 0h1.02V97h-1.02v-1.064zm2.783 0h1.02V97h-1.02v-1.064z" fill="#fff"/><path d="M42.48 5.223c.037.263.109.46.215.59.196.236.53.355 1.004.355.284 0 .515-.031.692-.094.336-.12.504-.342.504-.668a.493.493 0 00-.25-.441c-.167-.102-.429-.192-.786-.27l-.609-.136c-.599-.136-1.013-.283-1.242-.442-.388-.265-.582-.68-.582-1.246 0-.516.187-.944.562-1.285.375-.341.926-.512 1.653-.512.606 0 1.123.162 1.55.485.43.32.655.786.676 1.398h-1.156c-.02-.346-.172-.592-.453-.738a1.52 1.52 0 00-.7-.145c-.31 0-.557.063-.742.188a.597.597 0 00-.277.523c0 .206.091.36.273.461.118.068.368.147.75.238l.993.239c.435.104.763.243.984.418.344.27.516.662.516 1.175 0 .526-.202.964-.606 1.313-.4.346-.968.52-1.703.52-.75 0-1.34-.171-1.77-.512-.43-.344-.644-.815-.644-1.414h1.148zm6.723-.293c-.07.044-.142.08-.215.11a1.88 1.88 0 01-.293.073l-.25.047c-.234.042-.402.093-.504.152a.51.51 0 00-.257.473c0 .19.052.328.156.414a.61.61 0 00.387.125c.24 0 .46-.07.66-.21.203-.141.308-.398.316-.77V4.93zm-.676-.52c.206-.026.353-.058.442-.098.159-.067.238-.173.238-.316 0-.174-.061-.294-.184-.36-.12-.067-.296-.1-.53-.1-.264 0-.45.064-.56.194a.813.813 0 00-.156.391h-1.074c.024-.372.128-.678.313-.918.294-.375.8-.562 1.515-.562.466 0 .88.092 1.242.277.362.185.543.534.543 1.047v1.953c0 .135.003.3.008.492.008.146.03.245.067.297a.4.4 0 00.164.129V7h-1.211a1.243 1.243 0 01-.07-.242 2.924 2.924 0 01-.032-.258c-.153.167-.33.309-.531.426-.24.138-.51.207-.813.207-.385 0-.704-.11-.957-.328-.25-.222-.375-.534-.375-.938 0-.523.202-.902.606-1.137.221-.127.547-.218.976-.273l.38-.047zm2.344-.836v-.793h.594V1.594h1.101V2.78h.692v.793h-.692v2.25c0 .175.023.284.067.328.044.042.18.063.406.063h.105l.114-.008v.832l-.528.02c-.526.018-.885-.073-1.078-.274-.125-.127-.187-.324-.187-.59v-2.62h-.594zm4.211-.832V5.31c0 .242.029.424.086.546.102.217.3.325.598.325.38 0 .64-.154.78-.461.074-.167.11-.387.11-.66V2.742h1.13V7h-1.083v-.602c-.01.013-.036.053-.078.118a.785.785 0 01-.148.171 1.544 1.544 0 01-.508.32 1.707 1.707 0 01-.57.087c-.63 0-1.055-.227-1.274-.68-.122-.25-.184-.618-.184-1.105V2.742h1.141zm6.094-.101a.27.27 0 01.05.004c.016 0 .049 0 .098.003V3.79a3.017 3.017 0 00-.32-.02c-.448 0-.749.146-.902.438-.086.164-.13.417-.13.758V7h-1.12V2.742h1.062v.742c.172-.283.322-.477.45-.582.208-.174.478-.261.812-.261zm2.375 0a1.336 1.336 0 011.176.64V1.25h1.129V7h-1.083v-.59c-.158.253-.34.436-.542.55-.204.116-.456.173-.758.173-.498 0-.917-.2-1.258-.602-.339-.403-.508-.92-.508-1.55 0-.727.167-1.299.5-1.715.336-.417.784-.625 1.344-.625zm.242 3.554c.315 0 .555-.117.719-.351.164-.235.246-.538.246-.91 0-.521-.132-.894-.395-1.118a.85.85 0 00-.562-.203c-.326 0-.565.124-.719.371-.151.245-.227.55-.227.914 0 .394.077.709.23.946.157.234.393.351.708.351zm5.426-1.265a1.29 1.29 0 01-.215.11 1.88 1.88 0 01-.293.073l-.25.047c-.234.042-.402.093-.504.152a.51.51 0 00-.258.473c0 .19.052.328.157.414a.61.61 0 00.386.125c.24 0 .46-.07.66-.21.204-.141.309-.398.317-.77V4.93zm-.676-.52c.206-.026.353-.058.441-.098.16-.067.239-.173.239-.316 0-.174-.061-.294-.184-.36-.12-.067-.297-.1-.531-.1-.263 0-.45.064-.559.194a.812.812 0 00-.156.391h-1.074c.023-.372.127-.678.312-.918.294-.375.8-.562 1.516-.562.466 0 .88.092 1.242.277.362.185.543.534.543 1.047v1.953c0 .135.003.3.008.492.008.146.03.245.066.297a.4.4 0 00.164.129V7h-1.21a1.235 1.235 0 01-.07-.242 2.885 2.885 0 01-.032-.258c-.154.167-.33.309-.531.426-.24.138-.51.207-.813.207-.385 0-.704-.11-.957-.328-.25-.222-.375-.534-.375-.938 0-.523.202-.902.606-1.137.22-.127.546-.218.976-.273l.379-.047zm2.953 3.406l.14.008c.11.005.214.002.313-.011a.56.56 0 00.25-.09c.065-.045.125-.137.18-.278.057-.14.08-.226.07-.258l-1.562-4.445h1.238l.93 3.14.879-3.14h1.183l-1.46 4.188c-.282.807-.505 1.307-.669 1.5-.164.195-.492.293-.984.293-.1 0-.178-.002-.238-.004-.06 0-.15-.004-.27-.012v-.89zm8.767-4.608a2.1 2.1 0 01.128-.752 1.605 1.605 0 01.944-.96c.23-.09.483-.136.76-.136.283 0 .53.043.744.128.219.08.4.19.544.328.15.139.261.304.336.496.075.192.112.395.112.608a1.715 1.715 0 01-.456 1.176 2.41 2.41 0 01-.464.4 8.83 8.83 0 01-.528.336c-.181.101-.36.2-.536.296a3.603 3.603 0 00-.736.528 1.71 1.71 0 00-.232.248c-.07.09-.125.192-.168.304a1.083 1.083 0 00-.072.36h3.144V7h-3.688a3.4 3.4 0 01.088-.736c.053-.219.17-.432.352-.64.197-.224.4-.416.608-.576.213-.16.421-.301.624-.424.203-.128.395-.243.576-.344.181-.107.341-.221.48-.344.139-.123.248-.261.328-.416.08-.155.12-.344.12-.568a1.19 1.19 0 00-.096-.488 1.06 1.06 0 00-.656-.592 1.441 1.441 0 00-.488-.08c-.187 0-.357.04-.512.12-.15.075-.28.176-.392.304a1.419 1.419 0 00-.32.992h-.544zM84.973 7v-.704h.583V7h-.584zm0-3.232v-.704h.583v.704h-.584zm3.178.096c.24 0 .459-.013.656-.04.197-.032.365-.088.504-.168a.923.923 0 00.336-.336c.08-.139.12-.317.12-.536a.959.959 0 00-.096-.448.836.836 0 00-.264-.312 1.061 1.061 0 00-.384-.176 1.81 1.81 0 00-.456-.056c-.181 0-.347.03-.496.088-.144.059-.27.144-.376.256a1.11 1.11 0 00-.248.384 1.26 1.26 0 00-.088.48h-.512c0-.256.043-.485.128-.688.09-.208.23-.4.416-.576.176-.16.373-.261.592-.304.224-.048.453-.072.688-.072.224 0 .432.03.624.088.197.053.368.139.512.256a1.2 1.2 0 01.344.432c.085.176.128.381.128.616 0 .293-.067.547-.2.76-.128.213-.328.379-.6.496.203.064.368.15.496.256.133.101.237.216.312.344.075.123.125.253.152.392.027.139.04.272.04.4 0 .235-.04.453-.12.656a1.56 1.56 0 01-.352.536 1.77 1.77 0 01-.576.376 2.14 2.14 0 01-.768.144c-.325 0-.608-.03-.848-.088a1.465 1.465 0 01-.6-.288 1.41 1.41 0 01-.376-.536 3.008 3.008 0 01-.184-.832h.512c0 .432.128.76.384.984.261.219.6.328 1.016.328.203 0 .392-.035.568-.104.176-.07.325-.163.448-.28a1.14 1.14 0 00.288-.408c.07-.155.101-.315.096-.48a1.133 1.133 0 00-.16-.568.982.982 0 00-.392-.36c-.16-.09-.35-.15-.568-.176a3.314 3.314 0 00-.696-.024v-.416zm6.293.36c0-.304-.019-.6-.056-.888a2.638 2.638 0 00-.2-.784A1.353 1.353 0 0093.756 2c-.181-.139-.421-.208-.72-.208-.282 0-.514.072-.696.216a1.405 1.405 0 00-.416.56 3.133 3.133 0 00-.216.8 7.353 7.353 0 00-.056.912c0 .363.022.693.064.992.048.293.126.544.232.752.107.208.248.37.424.488.181.112.408.168.68.168.304 0 .547-.075.728-.224.187-.15.328-.341.424-.576.096-.235.16-.499.192-.792.032-.293.048-.581.048-.864zM93.052 1.36c.277 0 .517.043.72.128.203.08.373.192.512.336.144.144.259.312.344.504.09.192.16.397.208.616.048.213.08.435.096.664.016.23.024.453.024.672 0 .373-.026.73-.08 1.072a2.732 2.732 0 01-.296.904c-.138.261-.33.47-.576.624-.245.155-.563.232-.952.232-.39 0-.71-.077-.96-.232a1.686 1.686 0 01-.584-.624 2.96 2.96 0 01-.288-.92 7.426 7.426 0 01-.08-1.112c0-.357.024-.707.072-1.048.048-.341.139-.645.272-.912.139-.272.334-.49.584-.656.25-.165.579-.248.984-.248zM98.124 7V1.24h2.104c.373 0 .68.043.92.128.245.085.437.203.576.352.144.15.243.323.296.52.059.192.088.395.088.608 0 .32-.067.584-.2.792a1.447 1.447 0 01-.504.496c-.208.117-.445.2-.712.248a4.37 4.37 0 01-.792.072h-1.232V7h-.544zm1.792-3.008c.256 0 .485-.016.688-.048a1.38 1.38 0 00.512-.176.89.89 0 00.328-.36c.08-.155.12-.355.12-.6 0-.363-.12-.637-.36-.824-.235-.187-.611-.28-1.128-.28h-1.408v2.288h1.248zM103.015 7V1.24h.832l1.888 5.08h.016l1.856-5.08h.824V7h-.544V1.864h-.016L105.983 7h-.512l-1.896-5.136h-.016V7h-.544z" fill="#77777A"/></svg>